<svg xmlns="http://www.w3.org/2000/svg" viewBox="0 0 16 16">
  <path d="M8 0Q10.1875 0.03125 12 1.0625Q13.8125 2.125 14.9375 4Q16 5.90625 16 8Q16 10.0938 14.9375 12Q13.8125 13.875 12 14.9375Q10.1875 15.9688 8 16Q5.8125 15.9688 4 14.9375Q2.1875 13.875 1.0625 12Q0 10.0938 0 8Q0 5.90625 1.0625 4Q2.1875 2.125 4 1.0625Q5.8125 0.03125 8 0ZM11.5312 9.46875L7.53125 5.46875L11.5312 9.46875L7.53125 5.46875Q7 5.03125 6.46875 5.46875L4.46875 7.46875Q4.03125 8 4.46875 8.53125Q5 8.96875 5.53125 8.53125L7 7.0625L10.4688 10.5312Q11 10.9688 11.5312 10.5312Q11.9688 10 11.5312 9.46875Z" />
</svg>