<svg xmlns="http://www.w3.org/2000/svg" viewBox="0 0 20 16">
  <path d="M18.75 0H1.25C0.5625 0 0 0.5625 0 1.25V14.75C0 15.4375 0.5625 16 1.25 16H18.75C19.4375 16 20 15.4375 20 14.75V1.25C20 0.5625 19.4375 0 18.75 0ZM6.25 12.5H3.75C3.40625 12.5 3.125 12.2188 3.125 11.875C3.125 11.5312 3.40625 11.25 3.75 11.25H6.25C6.59375 11.25 6.875 11.5312 6.875 11.875C6.875 12.2188 6.59375 12.5 6.25 12.5ZM6.25 9.375H3.75C3.40625 9.375 3.125 9.09375 3.125 8.75C3.125 8.40625 3.40625 8.125 3.75 8.125H6.25C6.59375 8.125 6.875 8.40625 6.875 8.75C6.875 9.09375 6.59375 9.375 6.25 9.375ZM6.25 6.25H3.75C3.40625 6.25 3.125 5.96875 3.125 5.625C3.125 5.28125 3.40625 5 3.75 5H6.25C6.59375 5 6.875 5.28125 6.875 5.625C6.875 5.96875 6.59375 6.25 6.25 6.25ZM16.25 12.5H10C9.65625 12.5 9.375 12.2188 9.375 11.875C9.375 11.5312 9.65625 11.25 10 11.25H16.25C16.5938 11.25 16.875 11.5312 16.875 11.875C16.875 12.2188 16.5938 12.5 16.25 12.5ZM16.25 9.375H10C9.65625 9.375 9.375 9.09375 9.375 8.75C9.375 8.40625 9.65625 8.125 10 8.125H16.25C16.5938 8.125 16.875 8.40625 16.875 8.75C16.875 9.09375 16.5938 9.375 16.25 9.375ZM16.25 6.25H10C9.65625 6.25 9.375 5.96875 9.375 5.625C9.375 5.28125 9.65625 5 10 5H16.25C16.5938 5 16.875 5.28125 16.875 5.625C16.875 5.96875 16.5938 6.25 16.25 6.25Z" />
</svg>