<svg xmlns="http://www.w3.org/2000/svg" viewBox="0 0 20 16">
  <path d="M9.97274 14.0078Q9.59891 14.0078 9.22508 13.8828L0.502336 10.7266Q0.0350467 10.5078 0.00389408 10.0078Q0.0350467 9.50781 0.502336 9.28906L2.30919 8.63281Q1.53037 7.41406 1.49922 5.88281L1.49922 5.00781Q1.40576 3.63281 0.813863 2.47656Q0.502336 1.88281 0.097352 1.32031Q-0.0584112 1.10156 0.0350467 0.851562Q0.128505 0.601562 0.377726 0.507812L2.3715 0.0078125Q2.58956 -0.0234375 2.77648 0.0703125Q2.93224 0.195312 2.99455 0.414062Q3.30607 2.47656 2.93224 3.78906Q2.77648 4.47656 2.49611 5.10156L2.49611 5.88281Q2.52726 7.32031 3.36838 8.44531Q3.96028 9.16406 4.89486 9.53906L9.78583 11.4766Q10.222 11.6016 10.44 11.1953Q10.5646 10.7578 10.1597 10.5391L5.26869 8.63281Q4.67679 8.38281 4.27181 7.94531L9.22508 6.13281Q9.59891 6.00781 9.97274 6.00781Q10.3466 6.00781 10.7204 6.13281L19.4431 9.28906Q19.9104 9.50781 19.9416 10.0078Q19.9104 10.5078 19.4431 10.7266L10.7204 13.8828Q10.3466 14.0078 9.97274 14.0078ZM3.99143 2.25781Q4.05374 1.38281 5.73598 0.726562Q7.41822 0.0390625 9.97274 0.0078125Q12.5273 0.0390625 14.2095 0.726562Q15.8917 1.38281 15.9541 2.25781L15.4868 6.78906L11.0631 5.19531Q10.5335 5.00781 9.97274 5.00781Q9.41199 5.00781 8.91355 5.19531L4.45872 6.78906L3.99143 2.25781Z" />
</svg>