<svg xmlns="http://www.w3.org/2000/svg" viewBox="0 0 15 20">
  <path d="M2.5 20Q1.44531 19.9609 0.742188 19.2578Q0.0390625 18.5547 0 17.5L0 2.5Q0.0390625 1.44531 0.742188 0.742188Q1.44531 0.0390625 2.5 0L12.5 0Q13.5547 0.0390625 14.2578 0.742188Q14.9609 1.44531 15 2.5L15 13.75L10 13.75Q9.45312 13.75 9.10156 14.1016Q8.75 14.4531 8.75 15L8.75 20L2.5 20ZM10 20L10 15L10 20L10 15L15 15L10 20ZM4.375 10L10.625 10L4.375 10L10.625 10Q11.2109 9.96094 11.25 9.375Q11.2109 8.78906 10.625 8.75L4.375 8.75Q3.78906 8.78906 3.75 9.375Q3.78906 9.96094 4.375 10ZM4.375 7.5L10.625 7.5L4.375 7.5L10.625 7.5Q11.2109 7.46094 11.25 6.875Q11.2109 6.28906 10.625 6.25L4.375 6.25Q3.78906 6.28906 3.75 6.875Q3.78906 7.46094 4.375 7.5ZM4.375 5L10.625 5L4.375 5L10.625 5Q11.2109 4.96094 11.25 4.375Q11.2109 3.78906 10.625 3.75L4.375 3.75Q3.78906 3.78906 3.75 4.375Q3.78906 4.96094 4.375 5Z" />
</svg>