<svg xmlns="http://www.w3.org/2000/svg" xmlns:xlink="http://www.w3.org/1999/xlink" fill="none"
  version="1.1" width="64" height="64" viewBox="0 0 64 64">
  <defs>
    <clipPath id="master_svg0_21_1522">
      <rect x="23" y="20" width="18" height="24" rx="0" />
    </clipPath>
  </defs>
  <g>
    <rect x="0" y="0" width="64" height="64" rx="32" fill="#1890FF"
      fill-opacity="0.10000000149011612" style="mix-blend-mode:passthrough" />
    <g>
      <rect x="23" y="16" width="18" height="32" rx="0" fill="#000000" fill-opacity="0"
        style="mix-blend-mode:passthrough" />
      <g clip-path="url(#master_svg0_21_1522)">
        <g transform="matrix(1,0,0,-1,0,89.03125)">
          <g>
            <path
              d="M26,68.515625Q24.73438,68.468725,23.890625,67.625025Q23.046875,66.781225,23,65.515625L23,47.515625Q23.046875,46.250005,23.890625,45.40625Q24.73438,44.5625,26,44.515625L38,44.515625Q39.2656,44.5625,40.1094,45.40625Q40.9531,46.250005,41,47.515625L41,61.015625L35,61.015625Q34.3438,61.015625,33.9219,61.437525Q33.5,61.859425,33.5,62.515625L33.5,68.515625L26,68.515625ZM35,68.515625L35,62.515625L35,68.515625L35,62.515625L41,62.515625L35,68.515625ZM28.25,56.515625L35.75,56.515625L28.25,56.515625L35.75,56.515625Q36.4531,56.468725,36.5,55.765625Q36.4531,55.062525,35.75,55.015625L28.25,55.015625Q27.54688,55.062525,27.5,55.765625Q27.54688,56.468725,28.25,56.515625ZM28.25,53.515625L35.75,53.515625L28.25,53.515625L35.75,53.515625Q36.4531,53.468745,36.5,52.765625Q36.4531,52.062505,35.75,52.015625L28.25,52.015625Q27.54688,52.062505,27.5,52.765625Q27.54688,53.468745,28.25,53.515625ZM28.25,50.515625L35.75,50.515625L28.25,50.515625L35.75,50.515625Q36.4531,50.468745,36.5,49.765625Q36.4531,49.062505,35.75,49.015625L28.25,49.015625Q27.54688,49.062505,27.5,49.765625Q27.54688,50.468745,28.25,50.515625Z"
              fill="#1890FF" fill-opacity="1" style="mix-blend-mode:passthrough" />
          </g>
        </g>
      </g>
    </g>
  </g>
</svg>