<svg xmlns="http://www.w3.org/2000/svg" xmlns:xlink="http://www.w3.org/1999/xlink" fill="none"
  version="1.1" width="64" height="64" viewBox="0 0 64 64">
  <defs>
    <clipPath id="master_svg0_21_1517">
      <rect x="20" y="20" width="24" height="24" rx="0" />
    </clipPath>
  </defs>
  <g>
    <rect x="0" y="0" width="64" height="64" rx="32" fill="#1890FF"
      fill-opacity="0.10000000149011612" style="mix-blend-mode:passthrough" />
    <g>
      <rect x="20" y="16" width="24" height="32" rx="0" fill="#000000" fill-opacity="0"
        style="mix-blend-mode:passthrough" />
      <g clip-path="url(#master_svg0_21_1517)">
        <g transform="matrix(1,0,0,-1,0,84.53128051757812)">
          <g>
            <path
              d="M27.514434518957138,62.23434025878906Q28.20807451895714,61.484440258789064,27.606924518957136,60.64064025878906L24.27744451895714,56.89064025878906Q23.953744518957137,56.51564025878906,23.49131451895714,56.51564025878906Q22.982644518957137,56.51564025878906,22.65894451895714,56.84374025878906L20.80923351895714,58.71874025878906Q20.161835518957137,59.51564025878906,20.80923351895714,60.31254025878906Q21.595364518957137,60.96874025878906,22.381484518957137,60.31254025878906L23.398824518957138,59.28124025878906L25.942184518957138,62.14064025878906Q26.682064518957137,62.84374025878906,27.514434518957138,62.23434025878906ZM27.514434518957138,54.734440258789064Q28.20807451895714,53.984440258789064,27.606924518957136,53.14064025878906L24.27744451895714,49.39064025878906Q23.953744518957137,49.01564025878906,23.49131451895714,49.01564025878906Q22.982644518957137,49.01564025878906,22.65894451895714,49.34376025878906L20.80923351895714,51.21876025878906Q20.161835518957137,52.01564025878906,20.80923351895714,52.81254025878906Q21.595364518957137,53.46874025878906,22.381484518957137,52.81254025878906L23.398824518957138,51.78126025878906L25.942184518957138,54.64064025878906Q26.682064518957137,55.34374025878906,27.514434518957138,54.734440258789064ZM30.843934518957138,59.51564025878906Q30.843934518957138,60.17184025878906,31.260134518957138,60.59374025878906Q31.676334518957137,61.01564025878906,32.32373451895714,61.01564025878906L42.68203451895714,61.01564025878906Q43.32943451895714,61.01564025878906,43.74563451895714,60.59374025878906Q44.161834518957136,60.17184025878906,44.161834518957136,59.51564025878906Q44.161834518957136,58.859440258789064,43.74563451895714,58.43754025878906Q43.32943451895714,58.01564025878906,42.68203451895714,58.01564025878906L32.32373451895714,58.01564025878906Q31.676334518957137,58.01564025878906,31.260134518957138,58.43754025878906Q30.843934518957138,58.859440258789064,30.843934518957138,59.51564025878906ZM30.843934518957138,52.01564025878906Q30.843934518957138,52.67184025878906,31.260134518957138,53.09374025878906Q31.676334518957137,53.51564025878906,32.32373451895714,53.51564025878906L42.68203451895714,53.51564025878906Q43.32943451895714,53.51564025878906,43.74563451895714,53.09374025878906Q44.161834518957136,52.67184025878906,44.161834518957136,52.01564025878906Q44.161834518957136,51.35939025878906,43.74563451895714,50.937520258789064Q43.32943451895714,50.51564025878906,42.68203451895714,50.51564025878906L32.32373451895714,50.51564025878906Q31.676334518957137,50.51564025878906,31.260134518957138,50.937520258789064Q30.843934518957138,51.35939025878906,30.843934518957138,52.01564025878906ZM27.884374518957138,44.51564025878906Q27.884374518957138,45.17189025878906,28.300564518957138,45.59376025878906Q28.71674451895714,46.01564025878906,29.36414451895714,46.01564025878906L42.68203451895714,46.01564025878906Q43.32943451895714,46.01564025878906,43.74563451895714,45.59376025878906Q44.161834518957136,45.17189025878906,44.161834518957136,44.51564025878906Q44.161834518957136,43.85939025878906,43.74563451895714,43.43751025878906Q43.32943451895714,43.01564025878906,42.68203451895714,43.01564025878906L29.36414451895714,43.01564025878906Q28.71674451895714,43.01564025878906,28.300564518957138,43.43751025878906Q27.884374518957138,43.85939025878906,27.884374518957138,44.51564025878906ZM22.70518451895714,46.76564025878906Q23.953744518957137,46.71876025878906,24.64738451895714,45.64064025878906Q25.20229451895714,44.51564025878906,24.64738451895714,43.39064025878906Q23.953744518957137,42.31251525878906,22.70518451895714,42.26564025878906Q21.45663251895714,42.31251525878906,20.762991518957136,43.39064025878906Q20.20807751895714,44.51564025878906,20.762991518957136,45.64064025878906Q21.45663251895714,46.71876025878906,22.70518451895714,46.76564025878906Z"
              fill="#1890FF" fill-opacity="1" style="mix-blend-mode:passthrough" />
          </g>
        </g>
      </g>
    </g>
  </g>
</svg>