<svg xmlns="http://www.w3.org/2000/svg" xmlns:xlink="http://www.w3.org/1999/xlink" fill="none"
  version="1.1" width="64" height="64" viewBox="0 0 64 64">
  <defs>
    <clipPath id="master_svg0_21_1527">
      <rect x="18.5" y="20" width="27" height="24" rx="0" />
    </clipPath>
  </defs>
  <g>
    <rect x="0" y="0" width="64" height="64" rx="32" fill="#1890FF"
      fill-opacity="0.10000000149011612" style="mix-blend-mode:passthrough" />
    <g>
      <rect x="18.5" y="16" width="27" height="32" rx="0" fill="#000000" fill-opacity="0"
        style="mix-blend-mode:passthrough" />
      <g clip-path="url(#master_svg0_21_1527)">
        <g transform="matrix(1,0,0,-1,0,85.6988525390625)">
          <g>
            <path
              d="M36.5,42.87073306953125L27.5,45.44885626953125L36.5,42.87073306953125L27.5,45.44885626953125L27.5,63.49572626953125L36.5,60.917626269531254L36.5,42.87073306953125ZM38,42.91760816953125L38,61.05822626953125L38,42.91760816953125L38,61.05822626953125L43.9531,63.40202626953125Q44.5625,63.63632626953125,44.9844,63.30822626953125Q45.4531,62.980126269531254,45.5,62.37072626953125L45.5,46.66760626953125Q45.4531,45.96448626953125,44.7969,45.63635626953125L38,42.91760816953125ZM19.203125,60.730126269531254L26,63.44882626953125L19.203125,60.730126269531254L26,63.44882626953125L26,45.30823626953125L20.04688,42.91760816953125Q19.4375,42.73010826953125,19.015625,43.05823326953125Q18.546875,43.38635826953125,18.5,43.99573626953125L18.5,59.69882626953125Q18.546875,60.40202626953125,19.203125,60.730126269531254Z"
              fill="#1890FF" fill-opacity="1" style="mix-blend-mode:passthrough" />
          </g>
        </g>
      </g>
    </g>
  </g>
</svg>