<svg xmlns="http://www.w3.org/2000/svg" viewBox="0 0 27 27">
  <path d="M26.1595 26.6956Q27 26.1155 26.8949 25.0608L23.5331 3.12331Q23.3755 2.3323 22.6926 1.91042Q21.9572 1.54128 21.2218 1.85769L14.9183 4.44167L11.3463 0.539329Q10.5058 -0.251687 9.45525 0.117454Q8.4572 0.592063 8.40467 1.69949L8.40467 6.12917Q8.40467 6.44558 8.61479 6.65652L17.4397 16.3069Q17.8599 16.887 17.3872 17.4671Q16.8619 17.9417 16.2315 17.5198L5.56809 7.97487L0.945525 10.2952Q0.0525292 10.7698 0 11.7718Q0 12.7737 0.840467 13.301L24.3735 26.801Q25.3191 27.2757 26.1595 26.6956Z" />
</svg>