
<svg width="21" height="21" viewBox="0 0 21 21" fill="none" xmlns="http://www.w3.org/2000/svg">
  <path d="M20.7071 0.292922C21.006 0.591755 21.0847 1.04618 20.9038 1.42811C20.9038 1.42811 11.9038 20.4281 11.9038 20.4281C11.7229 20.8098 11.3218 21.0368 10.9015 20.9952C10.4812 20.9535 10.1323 20.6523 10.0299 20.2426C10.0299 20.2426 8.1754 12.8246 8.1754 12.8246C8.1754 12.8246 0.757489 10.9702 0.757489 10.9702C0.347726 10.8677 0.0465113 10.5189 0.00489156 10.0986C-0.0367282 9.67825 0.190223 9.2771 0.571939 9.09629C0.571939 9.09629 19.5719 0.0962906 19.5719 0.0962906C19.9539 -0.0846246 20.4083 -0.00591126 20.7071 0.292922C20.7071 0.292922 20.7071 0.292922 20.7071 0.292922ZM3.95337 9.70759C3.95337 9.70759 9.24256 11.0299 9.24256 11.0299C9.60085 11.1195 9.8806 11.3992 9.97017 11.7575C9.97017 11.7575 11.2925 17.0467 11.2925 17.0467C11.2925 17.0467 17.8976 3.10241 17.8976 3.10241C17.8976 3.10241 3.95337 9.70759 3.95337 9.70759C3.95337 9.70759 3.95337 9.70759 3.95337 9.70759Z" fill="currentColor"/>
</svg>
