<svg xmlns="http://www.w3.org/2000/svg" xmlns:xlink="http://www.w3.org/1999/xlink" fill="none"
  version="1.1" width="64" height="64" viewBox="0 0 64 64">
  <defs>
    <clipPath id="master_svg0_21_1532">
      <rect x="21.5" y="20" width="21" height="24" rx="0" />
    </clipPath>
  </defs>
  <g>
    <rect x="0" y="0" width="64" height="64" rx="32" fill="#1890FF"
      fill-opacity="0.10000000149011612" style="mix-blend-mode:passthrough" />
    <g>
      <rect x="21.5" y="16" width="21" height="32" rx="0" fill="#000000" fill-opacity="0"
        style="mix-blend-mode:passthrough" />
      <g clip-path="url(#master_svg0_21_1532)">
        <g transform="matrix(1,0,0,-1,0,86.03125)">
          <g>
            <path
              d="M24.5,64.015625Q23.23438,63.968725,22.390625,63.125025Q21.546875,62.281225,21.5,61.015625L21.5,46.015625Q21.546875,44.750005,22.390625,43.90625Q23.23438,43.0625,24.5,43.015625L39.5,43.015625Q40.7656,43.0625,41.6094,43.90625Q42.4531,44.750005,42.5,46.015625L42.5,61.015625Q42.4531,62.281225,41.6094,63.125025Q40.7656,63.968725,39.5,64.015625L24.5,64.015625ZM27.5,55.015625Q28.15625,55.015625,28.57812,54.593725Q29,54.171825,29,53.515625L29,49.015625Q29,48.359375,28.57812,47.937505Q28.15625,47.515625,27.5,47.515625Q26.84375,47.515625,26.42188,47.937505Q26,48.359375,26,49.015625L26,53.515625Q26,54.171825,26.42188,54.593725Q26.84375,55.015625,27.5,55.015625ZM30.5,58.015625Q30.5,58.671825,30.92188,59.093725Q31.34375,59.515625,32,59.515625Q32.6562,59.515625,33.0781,59.093725Q33.5,58.671825,33.5,58.015625L33.5,49.015625Q33.5,48.359375,33.0781,47.937505Q32.6562,47.515625,32,47.515625Q31.34375,47.515625,30.92188,47.937505Q30.5,48.359375,30.5,49.015625L30.5,58.015625ZM36.5,52.015625Q37.1562,52.015625,37.5781,51.593745Q38,51.171875,38,50.515625L38,49.015625Q38,48.359375,37.5781,47.937505Q37.1562,47.515625,36.5,47.515625Q35.8438,47.515625,35.4219,47.937505Q35,48.359375,35,49.015625L35,50.515625Q35,51.171875,35.4219,51.593745Q35.8438,52.015625,36.5,52.015625Z"
              fill="#1890FF" fill-opacity="1" style="mix-blend-mode:passthrough" />
          </g>
        </g>
      </g>
    </g>
  </g>
</svg>