<svg xmlns="http://www.w3.org/2000/svg" xmlns:xlink="http://www.w3.org/1999/xlink" fill="none"
  version="1.1" width="64" height="64" viewBox="0 0 64 64">
  <defs>
    <clipPath id="master_svg0_21_1537">
      <rect x="20" y="20" width="23.25" height="24" rx="0" />
    </clipPath>
  </defs>
  <g>
    <rect x="0" y="0" width="64" height="64" rx="32" fill="#1890FF"
      fill-opacity="0.10000000149011612" style="mix-blend-mode:passthrough" />
    <g>
      <rect x="20" y="16" width="24" height="32" rx="0" fill="#000000" fill-opacity="0"
        style="mix-blend-mode:passthrough" />
      <g clip-path="url(#master_svg0_21_1537)">
        <g transform="matrix(1,0,0,-1,0,84.53125)">
          <g>
            <path
              d="M20.75,61.765625Q19.71875,61.671825,19.625,60.640625L19.625,58.390625Q19.71875,57.359425,20.75,57.265625L23,57.265625Q24.03125,57.359425,24.125,58.390625L24.125,60.640625Q24.03125,61.671825,23,61.765625L20.75,61.765625ZM27.875,61.015625Q27.21875,61.015625,26.79688,60.593725Q26.375,60.171825,26.375,59.515625Q26.375,58.859425,26.79688,58.437525Q27.21875,58.015625,27.875,58.015625L41.375,58.015625Q42.0312,58.015625,42.4531,58.437525Q42.875,58.859425,42.875,59.515625Q42.875,60.171825,42.4531,60.593725Q42.0312,61.015625,41.375,61.015625L27.875,61.015625ZM27.875,53.515625Q27.21875,53.515625,26.79688,53.093725Q26.375,52.671825,26.375,52.015625Q26.375,51.359375,26.79688,50.937505Q27.21875,50.515625,27.875,50.515625L41.375,50.515625Q42.0312,50.515625,42.4531,50.937505Q42.875,51.359375,42.875,52.015625Q42.875,52.671825,42.4531,53.093725Q42.0312,53.515625,41.375,53.515625L27.875,53.515625ZM27.875,46.015625Q27.21875,46.015625,26.79688,45.593745Q26.375,45.171875,26.375,44.515625Q26.375,43.859375,26.79688,43.437505Q27.21875,43.015625,27.875,43.015625L41.375,43.015625Q42.0312,43.015625,42.4531,43.437505Q42.875,43.859375,42.875,44.515625Q42.875,45.171875,42.4531,45.593745Q42.0312,46.015625,41.375,46.015625L27.875,46.015625ZM19.625,53.140625L19.625,50.890625L19.625,53.140625L19.625,50.890625Q19.71875,49.859375,20.75,49.765625L23,49.765625Q24.03125,49.859375,24.125,50.890625L24.125,53.140625Q24.03125,54.171825,23,54.265625L20.75,54.265625Q19.71875,54.171825,19.625,53.140625ZM20.75,46.765625Q19.71875,46.671875,19.625,45.640625L19.625,43.390625Q19.71875,42.359375,20.75,42.265625L23,42.265625Q24.03125,42.359375,24.125,43.390625L24.125,45.640625Q24.03125,46.671875,23,46.765625L20.75,46.765625Z"
              fill="#1890FF" fill-opacity="1" style="mix-blend-mode:passthrough" />
          </g>
        </g>
      </g>
    </g>
  </g>
</svg>