<svg xmlns="http://www.w3.org/2000/svg" viewBox="0 0 20 20">
  <path d="M0 10Q0.0390625 12.7344 1.32812 15Q2.65625 17.2656 5 18.6719Q7.38281 20 10 20Q12.6172 20 15 18.6719Q17.3438 17.2656 18.6719 15Q19.9609 12.7344 20 10Q19.9609 7.26562 18.6719 5Q17.3438 2.73438 15 1.32812Q12.6172 0 10 0Q7.38281 0 5 1.32812Q2.65625 2.73438 1.32812 5Q0.0390625 7.26562 0 10ZM7.34375 14.2578Q6.875 13.9844 6.875 13.4375L6.875 6.5625Q6.875 6.01562 7.34375 5.74219Q7.85156 5.50781 8.32031 5.78125L13.9453 9.21875Q14.375 9.49219 14.375 10Q14.375 10.5078 13.9453 10.8203L8.32031 14.2578Q7.85156 14.4922 7.34375 14.2578Z" />
</svg>